File Name : London Boulevard 2010 1080p BRRip H264-Wrath.mp4

File Size
Format : MPEG-4
Format profile : Base Media
Codec ID : isom
File size : 3.89 GiB
Duration : 1h 43mn
Overall bit rate : 5 399 Kbps

Video
ID : 1
Format : AVC
Format/Info : Advanced Video Codec
Format profile : High@L4.1
Format settings, CABAC : Yes
Format settings, ReFrames : 3 frames
Codec ID : avc1
Codec ID/Info : Advanced Video Coding
Duration : 1h 43mn
Bit rate mode : Variable
Bit rate : 4 799 Kbps
Maximum bit rate : 25.1 Mbps
Width : 1 920 pixels
Height : 1 040 pixels
Display aspect ratio : 16:9
Frame rate mode : Constant
Frame rate : 23.976 fps
Resolution : 24 bits
Colorimetry : 4:2:0
Scan type : Progressive
Bits/(Pixel*Frame) : 0.100
Stream size : 3.45 GiB (89%)

Audio #1
ID : 2
Format : AAC
Format/Info : Advanced Audio Codec
Format version : Version 4
Format profile : LC
Format settings, SBR : No
Codec ID : 40
Duration : 1h 43mn
Bit rate mode : Variable
Bit rate : 185 Kbps
Maximum bit rate : 228 Kbps
Channel(s) : 2 channels
Channel positions : L R
Sampling rate : 48.0 KHz
Resolution : 16 bits
Stream size : 136 MiB (3%)

Audio #2
ID : 3
Format : AAC
Format/Info : Advanced Audio Codec
Format version : Version 4
Format profile : LC
Format settings, SBR : No
Codec ID : 40
Duration : 1h 43mn
Bit rate mode : Variable
Bit rate : 414 Kbps
Maximum bit rate : 519 Kbps
Channel(s) : 6 channels
Channel positions : Front: L C R, Rear: L R, LFE
Sampling rate : 48.0 KHz
Resolution : 16 bits
Stream size : 305 MiB (8%)

English SRT : External
Language : English



IMDB: 
http://www.imdb.com/title/tt1213648



Release Date: 26 November 2010 (UK) 
Genre: Crime | Romance 
Plot: "London Boulevard" is the story of a man newly released from prison who falls in love with a reclusive young movie star and finds himself in a duel with a vicious gangster. 
Cast:
Keira Knightley ... Charlotte
Colin Farrell ... Mitchell
Anna Friel ... Briony
Ray Winstone ... Gant
Jamie Campbell Bower ... White Boy
David Thewlis ... Jordan
Stephen Graham 
Eddie Marsan ... DI Bailey
Ben Chaplin ... Billy
Ophelia Lovibond ... Penny
Matt King ... Fletcher
Donald Sumpter ... Pentonville Governor
Velibor Topic ... Storbor
Lee Boardman ... Lee
Andrew Havill ... Unlikely Vagrant 




================================== 
http://thepiratebay.org/user/hiest
==================================




Screen Shots:
 
http://www.imagebam.com/image/009d9b124300682
 
http://www.imagebam.com/image/591727124300802
 
http://www.imagebam.com/image/584962124300897
 
http://www.imagebam.com/image/78e992124301045
 
http://www.imagebam.com/image/8a3bf8124301132
